<mxfile host="app.diagrams.net" modified="2024-05-22T12:48:32.233Z" agent="Mozilla/5.0 (Windows NT 10.0; Win64; x64) AppleWebKit/537.36 (KHTML, like Gecko) Chrome/124.0.0.0 Safari/537.36" version="24.4.6" etag="Qd5VWbznFg--iByuoM8T" type="github">
  <diagram name="Page-1" id="B9J2nwXgB1nFDwWS87WB">
    <mxGraphModel>
      <root>
        <mxCell id="0" />
        <mxCell id="1" parent="0" />
      </root>
    </mxGraphModel>
  </diagram>
</mxfile>
